<svg width="963.44" height="963.44" viewBox="67.44 18.28 889.92 963.44" fill="none" xmlns="http://www.w3.org/2000/svg">
  <defs>
    <linearGradient id="accent" x1="286" y1="222" x2="784" y2="812" gradientUnits="userSpaceOnUse">
      <stop offset="0%" stop-color="#70c1ff" />
      <stop offset="52%" stop-color="#42a5f5" />
      <stop offset="100%" stop-color="#1976d2" />
    </linearGradient>
    <linearGradient id="muted" x1="352" y1="404" x2="668" y2="584" gradientUnits="userSpaceOnUse">
      <stop offset="0%" stop-color="#42a5f5" />
      <stop offset="100%" stop-color="#0f3d6a" />
    </linearGradient>
    <filter id="softShadow" x="130" y="120" width="820" height="820" filterUnits="userSpaceOnUse"
      color-interpolation-filters="sRGB">
      <feDropShadow dx="0" dy="28" stdDeviation="34" flood-color="#000000" flood-opacity="0.34" />
    </filter>
    <mask id="badgeCutout" maskUnits="userSpaceOnUse">
      <rect width="1024" height="1024" fill="white" />
      <circle cx="686" cy="692" r="170" fill="black" />
    </mask>
  </defs>

  <g transform="translate(496 478) scale(1.44) translate(-512 -512)">
    <g filter="url(#softShadow)" mask="url(#badgeCutout)">
      <rect x="262" y="258" width="500" height="510" rx="78" fill="none" stroke="url(#accent)" stroke-width="36" />
      <path d="M296 366H728" stroke="url(#accent)" stroke-width="36" stroke-linecap="round" />
      <path d="M390 220V302" stroke="url(#accent)" stroke-width="42" stroke-linecap="round" />
      <path d="M634 220V302" stroke="url(#accent)" stroke-width="42" stroke-linecap="round" />
    </g>

    <g opacity="0.9" mask="url(#badgeCutout)">
      <circle cx="386" cy="466" r="24" fill="url(#accent)" />
      <rect x="448" y="448" width="220" height="34" rx="17" fill="url(#muted)" />
      <circle cx="386" cy="568" r="24" fill="url(#accent)" />
      <rect x="448" y="550" width="174" height="34" rx="17" fill="url(#muted)" />
      <circle cx="386" cy="670" r="24" fill="url(#accent)" />
      <rect x="448" y="652" width="118" height="34" rx="17" fill="url(#muted)" />
    </g>

    <g>
      <circle cx="686" cy="692" r="140" fill="none" stroke="url(#accent)" stroke-width="36" />
      <path d="M612 696L668 752L768 638" stroke="url(#accent)" stroke-width="54" stroke-linecap="round"
        stroke-linejoin="round" />
    </g>
  </g>
</svg>
